<svg version="1" xmlns="http://www.w3.org/2000/svg" width="614.667" height="614.667" viewBox="0 0 461.000000 461.000000"><path d="M103.8 1.2c-4.6.9-10.7 4.9-13.5 8.6-6.8 9.2-12.2 26.4-14.9 46.9-.2 1.8-.6 5-.9 7-2.7 21-2.7 91.8 0 115.8.3 2.2.7 7.4 1 11.5.3 4.1.8 9.5 1 12 1.1 10.4 2.7 24.7 3 27 .2 1.4.7 5 1 8 1.3 10.5 1.4 11.5 2 15.5.4 2.2.8 5.1 1 6.5 2.4 16.1 3.8 24.3 4.6 28.5.5 2.7 2 10.8 3.4 18 4.3 23 7.2 36.3 12.3 56.2l3.9 15.1-9 7.4C77 402.9 58.3 426.5 45.5 452l-4.5 9h378.1l-5.2-10.3c-10-19.4-24.5-39.2-39.9-54.1l-8.1-7.9 3.5-18.1c2-10 3.8-19.7 4.1-21.6.3-1.9 1-6 1.5-9s1.2-7.1 1.5-9c.3-1.9.7-4.6 1-6 .2-1.4.7-4.5 1-7 .4-2.5.8-5.9 1-7.5 1.1-7.9 3.1-24.4 4-32.5.4-3 .8-6.6 1-8 .2-1.4.6-6.3 1-11 .3-4.7.8-9.6 1-11 .3-2.2 1.2-12.8 2-24.5 2.7-38.6 2.7-117 0-133.9-.2-1.2-.6-4.8-.9-8.1-1.8-17.5-5.9-38.3-9.7-49.8C369.8 8 356.3-1.9 341.5 5.1c-17 8-33.4 42.9-47.9 102-2.5 10.1-4.8 20-5.1 21.9-.3 1.9-1.1 5.5-1.6 8-1.4 5.8-1.6 7.1-2.3 11.1-.3 1.9-.8 4.5-1 5.9-2.3 12.1-6.7 39.5-8.1 50-.2 1.4-.6 4.3-.9 6.5-.3 2.2-.8 6.2-1.1 9-.3 2.7-.8 6.6-1 8.5-.3 1.9-.7 6.2-1.1 9.5-.3 3.3-.7 7.1-.9 8.5-.1 1.4-.6 5.6-.9 9.5-.3 3.8-.8 9.9-1.2 13.5-.8 10-1.2 15.4-2 29-.3 6.9-.8 14.5-.9 17-.2 2.5-.4 9.3-.5 15.2l-.2 10.6-3.2-.4c-1.7-.2-6-.8-9.6-1.3-3.6-.5-15.4-.8-26.2-.7l-19.8.2-.1-4c0-2.3-.2-6.1-.3-8.6-.6-8-1.7-23.4-2-26.5-.2-1.7-.6-6.8-1-11.5s-.9-9.6-1.2-11c-.2-1.4-.6-4.8-.9-7.5-.5-5.2-1-10.1-1.9-17-.3-2.2-.8-6-1.1-8.5-2.3-17.8-9.5-61.2-11.5-69-.5-1.9-1.1-4.9-1.3-6.5-.7-4.7-7.7-35.2-9.8-43.2-1.1-4-2.2-8-2.4-9-.2-1-1.2-5-2.3-8.8-9.9-34.1-17.2-53.9-27.1-72.9-6.5-12.7-8.7-16-15.1-23C120.1 3 111.8-.5 103.8 1.2z"/></svg>